HIERARCHY
ROOT Hips
{
  OFFSET 3.13124 94.3669 -3.18751
  CHANNELS  6 Xposition Yposition Zposition Zrotation Xrotation Yrotation
  JOINT LeftUpLeg
  {
    OFFSET 8.64259 1.95398 -2.38835
    CHANNELS 3 Zrotation Xrotation Yrotation
    JOINT LeftLeg
    {
      OFFSET 43.7702 0 0
      CHANNELS 3 Zrotation Xrotation Yrotation
      JOINT LeftFoot
      {
        OFFSET 40.6238 0 0
        CHANNELS 3 Zrotation Xrotation Yrotation
        JOINT LeftToeBase
        {
          OFFSET 12.7242 0 0
          CHANNELS 3 Zrotation Xrotation Yrotation
          End Site
          {
            OFFSET 0 0 0
          }
        }
      }
    }
  }
  JOINT RightUpLeg
  {
    OFFSET -8.2249 1.95398 -2.59336
    CHANNELS 3 Zrotation Xrotation Yrotation
    JOINT RightLeg
    {
      OFFSET 43.5653 0 0
      CHANNELS 3 Zrotation Xrotation Yrotation
      JOINT RightFoot
      {
        OFFSET 40.6238 0 0
        CHANNELS 3 Zrotation Xrotation Yrotation
        JOINT RightToeBase
        {
          OFFSET 12.7242 0 0
          CHANNELS 3 Zrotation Xrotation Yrotation
          End Site
          {
            OFFSET 0 0 0
          }
        }
      }
    }
  }
  JOINT Spine
  {
    OFFSET 0.165834 0.87714 6.61349
    CHANNELS 3 Zrotation Xrotation Yrotation
    JOINT Spine1
    {
      OFFSET 7.38962 1.71661e-005 0
      CHANNELS 3 Zrotation Xrotation Yrotation
      JOINT Spine2
      {
        OFFSET 11.9445 1.14441e-005 0
        CHANNELS 3 Zrotation Xrotation Yrotation
        JOINT Spine3
        {
          OFFSET 14.7254 4.19617e-005 0
          CHANNELS 3 Zrotation Xrotation Yrotation
          JOINT Spine4
          {
            OFFSET 10.9679 0 0
            CHANNELS 3 Zrotation Xrotation Yrotation
            JOINT RightShoulder
            {
              OFFSET 2.46616 -1.6653 3.69651
              CHANNELS 3 Zrotation Xrotation Yrotation
              JOINT RightArm
              {
                OFFSET 13.0012 0 0
                CHANNELS 3 Zrotation Xrotation Yrotation
                JOINT RightForeArm
                {
                  OFFSET 28.7848 1.52588e-005 0
                  CHANNELS 3 Zrotation Xrotation Yrotation
                  JOINT RightHand
                  {
                    OFFSET 26.5688 1.52588e-005 0
                    CHANNELS 3 Zrotation Xrotation Yrotation
                    End Site
                    {
                      OFFSET 0 0 0
                    }
                  }
                }
              }
            }
            JOINT LeftShoulder
            {
              OFFSET 2.38034 -1.29275 -3.75231
              CHANNELS 3 Zrotation Xrotation Yrotation
              JOINT LeftArm
              {
                OFFSET 16.3182 6.10352e-005 0
                CHANNELS 3 Zrotation Xrotation Yrotation
                JOINT LeftForeArm
                {
                  OFFSET 27.0901 0 0
                  CHANNELS 3 Zrotation Xrotation Yrotation
                  JOINT LeftHand
                  {
                    OFFSET 24.5451 1.52588e-005 0
                    CHANNELS 3 Zrotation Xrotation Yrotation
                    End Site
                    {
                      OFFSET 0 0 0
                    }
                  }
                }
              }
            }
            JOINT Neck
            {
              OFFSET 5.0226 -0.0266342 0
              CHANNELS 3 Zrotation Xrotation Yrotation
              JOINT Head
              {
                OFFSET 6.69363 2.86102e-005 0
                CHANNELS 3 Zrotation Xrotation Yrotation
                End Site
                {
                  OFFSET 0 0 0
                }
              }
            }
          }
        }
      }
    }
  }
}
MOTION
Frames:	10
Frame Time:	0.0333333
-0.400338 95.7341 68.7395 76.8023 18.3721 90.8815 -176.612 32.7151 100.91 -44.395 -2.65399 8.15491 44.1421 -1.94093 -2.57427 28.7808 2.43711e-006 -4.46296e-006 176.161 14.1938 77.1409 -23.171 -26.4038 -1.53271 42.7072 2.67679 2.98621 28.7808 1.37255e-005 7.26515e-006 1.45725 7.73501 -90.3428 11.3839 2.69418 -0.987571 -0.284799 2.64809 -1.10523 -22.842 2.86632 -0.131864 -2.82933 2.86632 -0.131868 102.731 -54.71 -81.1318 38.1319 -15.1255 23.4927 -38.9774 20.4971 -119.15 12.5339 7.80703 56.489 -95.0561 -53.6463 72.2649 -38.7916 7.85467 34.7351 78.3252 -14.1003 -94.7815 -25.221 -11.2235 47.0583 -11.5896 12.8677 22.8953 -4.17767 12.4467 -22.5468 
-0.898534 93.1172 65.8081 73.5028 25.8017 94.4964 -175.597 36.3943 103.037 -35.5208 4.72971 7.30839 42.9157 -6.16221 -5.9634 28.7808 2.43711e-006 -4.46296e-006 175.657 12.4295 77.2253 -22.0067 -18.4394 -1.09513 50.9195 2.32817 2.18741 28.7808 1.37255e-005 7.26515e-006 1.52654 7.52458 -90.8729 11.8148 2.49118 -1.18666 0.145651 2.43653 -1.29581 -22.4081 2.73275 -0.37835 -2.39548 2.73274 -0.378355 104.068 -60.0625 -79.3281 34.581 -6.08055 22.7114 -37.7421 19.7057 -119.358 20.3247 11.0933 49.8513 -97.4872 -54.6685 69.1433 -37.5327 3.54309 24.3271 78.5376 2.4937 -92.328 -11.0861 -4.28743 46.8439 -4.38341 11.7399 20.8071 -8.00106 10.9606 -26.0534 
-1.77825 89.5952 62.321 71.4352 33.7959 95.6071 -175.759 38.4854 101.35 -32.4638 7.53504 6.55327 44.5959 -7.0556 -6.48737 28.7808 2.43711e-006 -4.46296e-006 175.279 10.8386 74.5879 -25.3239 -9.86209 -0.640507 64.4259 1.92784 1.19245 28.7808 1.37255e-005 7.26515e-006 1.46581 7.43207 -90.9737 11.9869 2.19687 -1.00463 0.317364 2.15053 -1.10036 -22.2322 2.39716 -0.297587 -2.21957 2.39717 -0.297593 105.185 -61.2822 -77.8495 33.2393 -1.61177 20.7721 -37.7999 17.0248 -116.242 20.6198 9.28598 41.5381 -100.85 -55.0637 64.619 -36.3162 -0.391285 12.4868 72.7677 22.2749 -84.6361 6.85194 4.00849 43.7526 2.0879 9.65216 19.6564 -11.5329 8.92039 -29.2751 
-1.2129 87.0872 59.3458 74.5154 37.2853 98.5849 -174.098 36.6905 105.861 -36.0555 9.14802 7.67563 50.095 -12.3908 -9.83868 28.7808 2.43711e-006 -4.46296e-006 175.815 3.84693 78.4515 -24.9585 -2.20861 -0.212513 70.0207 0.945936 0.408275 28.7808 1.37255e-005 7.26515e-006 1.84434 7.5848 -91.2505 11.723 2.93782 -2.4878 0.0526767 2.82552 -2.61467 -22.5011 3.54951 -1.48939 -2.48844 3.54952 -1.48941 105.782 -58.9917 -76.9036 32.1023 1.57829 20.0035 -42.1122 17.3497 -113.423 24.5344 10.4516 39.035 -104.039 -54.3493 59.9709 -37.2703 -2.73627 -0.177923 60.8689 45.5181 -69.1671 26.5796 11.8018 39.1921 6.53535 7.50423 22.925 -15.9275 7.21237 -34.8266 
-1.6833 86.295 54.5854 73.7982 35.3591 99.7521 -171.729 34.5255 105.162 -36.0481 10.2164 6.05634 64.0675 -11.4189 -6.58959 28.7808 2.43711e-006 -4.46296e-006 174.979 2.90154 76.4393 -22.5019 -3.09895 -0.254707 66.6609 3.49328 1.85793 28.7808 1.37255e-005 7.26515e-006 2.20016 7.35248 -91.2647 12.2317 3.72162 -3.23841 0.56159 3.57502 -3.399 -22.0019 4.52403 -1.96955 -1.98922 4.52402 -1.96958 103.947 -55.9869 -79.4142 27.972 12.6245 17.9404 -92.3203 12.0693 -92.8226 18.2042 3.55897 16.552 -104.58 -55.5476 59.767 -39.627 -1.9403 -1.64429 52.2073 47.846 -60.7848 27.5803 12.8232 41.6214 8.91538 6.69354 26.0293 -18.7022 6.26725 -35.6842 
-1.93105 87.1207 49.4673 76.223 32.5625 96.6439 -169.886 29.4048 101.547 -36.3389 1.25343 2.87976 68.99 -6.65786 -3.44425 28.7808 2.43711e-006 -4.46296e-006 175.409 6.47171 71.5067 -30.7611 -5.66477 -0.476989 53.4652 0.573521 0.713397 28.7808 1.37255e-005 7.26515e-006 1.98732 7.71457 -90.2977 11.5196 3.64331 -2.10825 -0.147913 3.55526 -2.26716 -22.7212 4.08558 -0.911084 -2.70853 4.08559 -0.911102 91.6789 -67.8712 -95.1874 19.4376 26.8219 9.03369 -103.115 6.10237 -91.4724 14.9095 -0.127828 -5.82555 -91.305 -51.2639 77.0772 -44.187 3.34057 4.43375 53.5803 36.1813 -67.1415 22.3581 10.8327 42.3315 18.8573 6.75585 12.6314 -25.1589 7.71869 -23.8831 
-4.1645 89.2584 43.7349 74.3514 37.585 95.7944 -173.387 27.2459 94.5007 -32.8079 2.16952 4.40077 65.628 -5.8944 -3.26381 28.7808 2.43711e-006 -4.46296e-006 176.514 10.5675 68.4293 -35.4906 -2.46091 -0.392389 34.5306 -3.49579 -2.48618 28.7808 1.37255e-005 7.26515e-006 1.62161 7.41828 -90.6346 12.0845 2.76032 -2.3771 0.414088 2.65385 -2.49568 -22.1366 3.34136 -1.44129 -2.12398 3.34135 -1.4413 96.4805 -64.3372 -89.4272 21.6187 24.5956 9.44269 -97.2036 15.192 -91.6007 25.6235 0.565025 -3.23237 -91.2218 -51.2877 77.1913 -43.3765 3.65594 21.9401 58.8096 18.6182 -80.0835 8.57358 1.73292 14.0838 14.2433 5.83468 14.6061 -22.8612 6.14503 -23.2273 
-3.39796 92.1943 39.8209 75.8199 36.9284 96.5771 -172.808 23.0011 94.6739 -29.6114 3.07611 4.16631 58.2168 -5.88553 -4.01625 28.7808 2.43711e-006 -4.46296e-006 177.233 9.87298 75.0875 -31.6684 11.5699 0.478738 41.2434 16.4489 14.9491 28.7808 1.37255e-005 7.26515e-006 1.90049 7.43496 -91.0371 12.0528 3.19374 -2.80873 0.382463 3.06709 -2.94654 -22.1732 3.89001 -1.71887 -2.16056 3.89002 -1.71887 95.2579 -66.2987 -90.8319 26.5439 13.2424 6.45146 -60.9527 31.4424 -111.177 50.994 21.5461 37.9151 -89.6008 -48.0275 78.9156 -45.3459 4.76398 26.419 63.0274 16.6898 -82.8719 10.683 1.67646 11.2088 12.0622 3.99588 11.3838 -23.5087 5.10128 -20.7184 
-2.69229 95.7041 36.272 77.0298 37.3551 95.9296 -172.015 19.2906 93.9048 -25.6264 5.73656 3.24021 44.3745 -6.02013 -5.71776 28.7808 2.43711e-006 -4.46296e-006 177.896 11.8621 79.3185 -30.6698 -2.3187 -0.299428 42.2368 15.0632 13.4921 28.7808 1.37255e-005 7.26515e-006 2.04927 7.51375 -91.2268 11.9004 3.43868 -3.12028 0.22993 3.29807 -3.26854 -22.3282 4.21717 -1.93695 -2.31555 4.21718 -1.93697 93.9885 -64.5886 -92.6695 26.284 14.0472 4.29314 -57.1586 31.7673 -113.959 50.8929 21.1324 37.2382 -89.2435 -47.0993 79.2333 -45.0409 2.67907 26.306 71.5699 22.9174 -83.9539 19.232 2.81008 10.6463 7.62685 3.59476 11.7807 -21.5551 4.68897 -20.5357 
-1.84369 99.0654 32.8293 78.4898 37.5253 94.6856 -171.495 17.0339 93.282 -23.2157 8.11487 2.30377 28.1264 -7.34215 -9.48193 28.7808 2.43711e-006 -4.46296e-006 178.388 12.448 83.7288 -25.4526 -2.34831 -0.23639 42.3321 11.0996 10.124 28.7808 1.37255e-005 7.26515e-006 2.31147 7.61965 -91.3984 11.692 3.92697 -3.28668 0.0223781 3.77862 -3.4564 -22.5465 4.73265 -1.94846 -2.53383 4.73267 -1.94848 92.6522 -64.7463 -94.3886 26.4135 13.393 2.95912 -58.964 29.926 -111.725 40.5576 15.1293 33.583 -89.8004 -46.6424 78.3167 -45.4689 2.48672 26.5666 69.012 23.7115 -82.4926 20.4564 3.70693 14.278 1.21104 2.20084 12.1786 -17.3743 3.3067 -21.6773 
